TITLE ""
FILE "P1Q_t_0020-0029.mp3" MP3
  TRACK 01 AUDIO
    TITLE "P1Q_t_0020-0029_01"
    INDEX 01 00:00:00
  TRACK 02 AUDIO
    TITLE "P1Q_t_0020-0029_02"
    INDEX 01 00:01:27
  TRACK 03 AUDIO
    TITLE "P1Q_t_0020-0029_03"
    INDEX 01 00:01:49
  TRACK 04 AUDIO
    TITLE "P1Q_t_0020-0029_04"
    INDEX 01 00:05:23
  TRACK 05 AUDIO
    TITLE "P1Q_t_0020-0029_05"
    INDEX 01 00:05:43
  TRACK 06 AUDIO
    TITLE "P1Q_t_0020-0029_06"
    INDEX 01 00:09:70
  TRACK 07 AUDIO
    TITLE "P1Q_t_0020-0029_07"
    INDEX 01 00:10:42
  TRACK 08 AUDIO
    TITLE "P1Q_t_0020-0029_08"
    INDEX 01 00:11:71
  TRACK 09 AUDIO
    TITLE "P1Q_t_0020-0029_09"
    INDEX 01 00:12:17
  TRACK 10 AUDIO
    TITLE "P1Q_t_0020-0029_10"
    INDEX 01 00:14:67
  TRACK 11 AUDIO
    TITLE "P1Q_t_0020-0029_11"
    INDEX 01 00:15:12
  TRACK 12 AUDIO
    TITLE "P1Q_t_0020-0029_12"
    INDEX 01 00:19:70
  TRACK 13 AUDIO
    TITLE "P1Q_t_0020-0029_13"
    INDEX 01 00:20:42
  TRACK 14 AUDIO
    TITLE "P1Q_t_0020-0029_14"
    INDEX 01 00:21:63
  TRACK 15 AUDIO
    TITLE "P1Q_t_0020-0029_15"
    INDEX 01 00:22:08
  TRACK 16 AUDIO
    TITLE "P1Q_t_0020-0029_16"
    INDEX 01 00:26:29
  TRACK 17 AUDIO
    TITLE "P1Q_t_0020-0029_17"
    INDEX 01 00:26:51
  TRACK 18 AUDIO
    TITLE "P1Q_t_0020-0029_18"
    INDEX 01 00:30:54
  TRACK 19 AUDIO
    TITLE "P1Q_t_0020-0029_19"
    INDEX 01 00:31:25
  TRACK 20 AUDIO
    TITLE "P1Q_t_0020-0029_20"
    INDEX 01 00:32:44
  TRACK 21 AUDIO
    TITLE "P1Q_t_0020-0029_21"
    INDEX 01 00:32:63
  TRACK 22 AUDIO
    TITLE "P1Q_t_0020-0029_22"
    INDEX 01 00:34:62
  TRACK 23 AUDIO
    TITLE "P1Q_t_0020-0029_23"
    INDEX 01 00:35:07
  TRACK 24 AUDIO
    TITLE "P1Q_t_0020-0029_24"
    INDEX 01 00:39:26
  TRACK 25 AUDIO
    TITLE "P1Q_t_0020-0029_25"
    INDEX 01 00:39:73
  TRACK 26 AUDIO
    TITLE "P1Q_t_0020-0029_26"
    INDEX 01 00:41:13
  TRACK 27 AUDIO
    TITLE "P1Q_t_0020-0029_27"
    INDEX 01 00:41:37
  TRACK 28 AUDIO
    TITLE "P1Q_t_0020-0029_28"
    INDEX 01 00:44:45
  TRACK 29 AUDIO
    TITLE "P1Q_t_0020-0029_29"
    INDEX 01 00:44:64
  TRACK 30 AUDIO
    TITLE "P1Q_t_0020-0029_30"
    INDEX 01 00:50:16
  TRACK 31 AUDIO
    TITLE "P1Q_t_0020-0029_31"
    INDEX 01 00:50:65
  TRACK 32 AUDIO
    TITLE "P1Q_t_0020-0029_32"
    INDEX 01 00:52:01
  TRACK 33 AUDIO
    TITLE "P1Q_t_0020-0029_33"
    INDEX 01 00:52:25
  TRACK 34 AUDIO
    TITLE "P1Q_t_0020-0029_34"
    INDEX 01 00:56:44
  TRACK 35 AUDIO
    TITLE "P1Q_t_0020-0029_35"
    INDEX 01 00:56:66
  TRACK 36 AUDIO
    TITLE "P1Q_t_0020-0029_36"
    INDEX 01 01:00:63
  TRACK 37 AUDIO
    TITLE "P1Q_t_0020-0029_37"
    INDEX 01 01:01:35
  TRACK 38 AUDIO
    TITLE "P1Q_t_0020-0029_38"
    INDEX 01 01:02:41
  TRACK 39 AUDIO
    TITLE "P1Q_t_0020-0029_39"
    INDEX 01 01:02:62
  TRACK 40 AUDIO
    TITLE "P1Q_t_0020-0029_40"
    INDEX 01 01:06:31
  TRACK 41 AUDIO
    TITLE "P1Q_t_0020-0029_41"
    INDEX 01 01:06:52
  TRACK 42 AUDIO
    TITLE "P1Q_t_0020-0029_42"
    INDEX 01 01:12:02
  TRACK 43 AUDIO
    TITLE "P1Q_t_0020-0029_43"
    INDEX 01 01:12:47
  TRACK 44 AUDIO
    TITLE "P1Q_t_0020-0029_44"
    INDEX 01 01:14:03
  TRACK 45 AUDIO
    TITLE "P1Q_t_0020-0029_45"
    INDEX 01 01:14:24
  TRACK 46 AUDIO
    TITLE "P1Q_t_0020-0029_46"
    INDEX 01 01:17:68
  TRACK 47 AUDIO
    TITLE "P1Q_t_0020-0029_47"
    INDEX 01 01:18:12
  TRACK 48 AUDIO
    TITLE "P1Q_t_0020-0029_48"
    INDEX 01 01:22:26
  TRACK 49 AUDIO
    TITLE "P1Q_t_0020-0029_49"
    INDEX 01 01:22:73
  TRACK 50 AUDIO
    TITLE "P1Q_t_0020-0029_50"
    INDEX 01 01:24:15
  TRACK 51 AUDIO
    TITLE "P1Q_t_0020-0029_51"
    INDEX 01 01:24:37
  TRACK 52 AUDIO
    TITLE "P1Q_t_0020-0029_52"
    INDEX 01 01:29:22
  TRACK 53 AUDIO
    TITLE "P1Q_t_0020-0029_53"
    INDEX 01 01:29:45
  TRACK 54 AUDIO
    TITLE "P1Q_t_0020-0029_54"
    INDEX 01 01:34:07
  TRACK 55 AUDIO
    TITLE "P1Q_t_0020-0029_55"
    INDEX 01 01:34:54
  TRACK 56 AUDIO
    TITLE "P1Q_t_0020-0029_56"
    INDEX 01 01:36:01
  TRACK 57 AUDIO
    TITLE "P1Q_t_0020-0029_57"
    INDEX 01 01:36:22
  TRACK 58 AUDIO
    TITLE "P1Q_t_0020-0029_58"
    INDEX 01 01:40:39
  TRACK 59 AUDIO
    TITLE "P1Q_t_0020-0029_59"
    INDEX 01 01:40:59
  TRACK 60 AUDIO
    TITLE "P1Q_t_0020-0029_60"
    INDEX 01 01:47:39
